<?xml version="1.0" standalone="no"?>
<!DOCTYPE svg PUBLIC "-//W3C//DTD SVG 20010904//EN"
 "http://www.w3.org/TR/2001/REC-SVG-20010904/DTD/svg10.dtd">
<svg version="1.0" xmlns="http://www.w3.org/2000/svg"
 width="104.000000pt" height="104.000000pt" viewBox="0 0 104.000000 104.000000"
 preserveAspectRatio="xMidYMid meet">
<metadata>
Created by potrace 1.11, written by Peter Selinger 2001-2013
</metadata>
<g transform="translate(0.000000,104.000000) scale(0.100000,-0.100000)"
fill="#000000" stroke="none">
<path d="M303 878 c-89 -90 -171 -175 -182 -190 -23 -29 -27 -72 -8 -105 7
-12 88 -99 181 -193 l169 -171 25 23 c38 35 107 109 110 120 2 5 -7 19 -20 31
-12 13 -70 71 -128 130 l-104 107 127 128 c70 70 127 132 127 137 0 6 -31 41
-68 78 l-68 67 -161 -162z m223 75 l54 -57 -42 -44 c-24 -24 -82 -84 -129
-133 l-87 -88 21 -23 c11 -13 69 -73 130 -134 l109 -112 -53 -56 c-29 -31 -58
-56 -64 -56 -18 0 -326 321 -340 355 -10 23 -11 35 -2 51 15 27 329 353 341
354 5 0 33 -26 62 -57z"/>
<path d="M623 815 c-146 -150 -162 -175 -140 -227 7 -15 58 -74 115 -133 56
-58 102 -108 102 -110 0 -2 -43 -48 -95 -101 l-95 -98 68 -70 c37 -39 71 -69
75 -68 9 3 110 104 230 229 61 65 67 75 67 113 0 40 -5 47 -116 160 l-115 118
23 19 c13 11 56 54 97 96 l74 76 -68 70 c-38 39 -71 71 -75 71 -4 0 -70 -65
-147 -145z m257 2 c0 -5 -21 -31 -47 -57 -27 -26 -67 -67 -91 -92 l-44 -45
115 -118 c71 -72 117 -127 120 -143 8 -39 -16 -70 -157 -212 l-125 -125 -56
55 c-30 30 -55 59 -55 64 0 5 40 50 89 100 50 50 90 96 90 101 0 6 -47 58
-104 116 -56 59 -108 116 -114 127 -24 45 -13 63 127 206 l137 142 58 -55 c31
-31 57 -59 57 -64z"/>
</g>
</svg>
