<?xml version="1.0" standalone="no"?>
<!DOCTYPE svg PUBLIC "-//W3C//DTD SVG 20010904//EN"
 "http://www.w3.org/TR/2001/REC-SVG-20010904/DTD/svg10.dtd">
<svg version="1.0" xmlns="http://www.w3.org/2000/svg"
 width="2131.000000pt" height="2131.000000pt" viewBox="0 0 2131.000000 2131.000000"
 preserveAspectRatio="xMidYMid meet">
<metadata>
Created by potrace 1.11, written by Peter Selinger 2001-2013
</metadata>
<g transform="translate(0.000000,2131.000000) scale(0.100000,-0.100000)"
fill="#000000" stroke="none">
<path d="M5924 20907 c-270 -228 -286 -241 -298 -252 -6 -6 -72 -62 -146 -125
-74 -63 -137 -117 -140 -120 -3 -3 -32 -27 -65 -55 -33 -27 -62 -52 -65 -55
-3 -3 -108 -93 -235 -200 -126 -107 -232 -197 -235 -200 -3 -3 -189 -163 -415
-355 -225 -192 -478 -407 -561 -478 l-152 -129 -1 -2729 c-1 -1501 1 -2729 4
-2729 3 0 124 100 268 223 144 123 323 274 397 337 74 63 146 124 160 137 37
32 62 53 116 98 26 22 109 92 183 156 75 63 201 171 281 238 80 68 156 133
170 145 14 12 66 56 115 98 294 249 524 444 550 467 16 14 48 41 70 60 40 33
72 61 215 182 41 35 86 73 99 84 13 11 45 38 71 60 59 50 71 60 559 476 222
189 436 371 476 404 56 46 440 373 625 531 33 28 298 253 329 279 13 11 29 25
35 30 6 6 70 60 141 120 72 60 141 120 155 131 14 12 63 55 110 94 47 40 96
82 110 94 14 12 126 107 248 211 l224 189 -23 19 c-13 10 -46 38 -74 62 -27
24 -178 152 -335 286 -157 133 -357 303 -445 378 -144 123 -800 681 -850 723
-11 9 -72 61 -136 115 -63 54 -139 118 -169 143 -29 25 -69 59 -89 76 -20 17
-103 88 -186 159 -82 70 -172 146 -200 170 -128 109 -433 368 -465 395 -10 8
-29 24 -42 35 -12 11 -52 44 -88 74 -36 31 -67 58 -70 61 -43 46 -33 51 -226
-113z"/>
<path d="M13429 19457 c-13 -12 -112 -98 -219 -191 -107 -92 -211 -182 -230
-199 -20 -18 -96 -84 -170 -147 -74 -63 -142 -122 -150 -130 -9 -8 -30 -26
-46 -40 -117 -101 -241 -207 -254 -220 -9 -8 -32 -28 -52 -45 -19 -16 -61 -53
-94 -81 -368 -318 -458 -396 -508 -439 -32 -27 -68 -59 -80 -70 -22 -20 -50
-44 -231 -200 -49 -43 -117 -101 -150 -130 -70 -61 -164 -142 -406 -350 -96
-82 -176 -152 -179 -156 -4 -5 -107 -94 -190 -165 -26 -23 -187 -162 -206
-179 -7 -5 -36 -31 -65 -56 -30 -25 -128 -110 -219 -189 -91 -78 -189 -163
-219 -189 -30 -25 -59 -51 -65 -56 -6 -6 -162 -141 -346 -300 -184 -159 -342
-296 -351 -304 -9 -9 -25 -23 -35 -31 -33 -27 -399 -344 -404 -349 -3 -3 -34
-31 -70 -61 -36 -30 -67 -57 -70 -60 -3 -3 -34 -30 -70 -60 -36 -30 -67 -58
-70 -61 -3 -3 -27 -25 -55 -49 -27 -23 -75 -64 -105 -90 -30 -26 -147 -127
-260 -225 -113 -97 -221 -191 -240 -208 -20 -18 -96 -84 -170 -147 -74 -63
-137 -117 -140 -120 -3 -4 -45 -42 -95 -85 -310 -271 -519 -561 -618 -857 -30
-90 -43 -139 -51 -188 -3 -19 -8 -46 -12 -60 -3 -14 -7 -92 -9 -175 -3 -150 7
-249 39 -390 19 -84 87 -263 141 -373 146 -296 348 -547 630 -787 119 -101
150 -128 155 -134 3 -4 48 -42 100 -86 52 -44 100 -85 105 -91 6 -6 75 -67
155 -135 155 -132 196 -168 214 -184 6 -6 76 -66 156 -134 80 -68 150 -129
155 -135 6 -6 73 -65 150 -131 77 -66 142 -122 145 -125 3 -3 34 -30 70 -61
68 -59 524 -453 575 -498 17 -14 59 -51 95 -81 36 -30 70 -60 76 -66 42 -39
658 -570 664 -572 8 -3 17 3 73 51 12 11 89 76 171 145 82 70 201 172 266 227
64 55 130 111 147 125 17 14 54 46 84 71 66 57 476 405 734 624 217 184 262
222 338 288 30 26 88 75 128 109 41 33 99 82 129 108 30 27 93 81 140 120 47
40 99 84 115 99 17 14 55 46 85 71 30 25 57 47 60 50 3 3 34 30 70 60 36 30
67 57 70 60 3 3 79 68 170 145 91 76 183 155 205 174 23 20 91 79 153 131 100
84 111 96 96 107 -10 7 -29 23 -43 35 -14 13 -127 111 -251 218 -124 107 -227
197 -230 200 -3 3 -84 73 -180 155 -96 83 -180 155 -186 160 -11 11 -59 52
-228 199 -50 43 -113 98 -141 122 -27 24 -63 54 -78 67 l-28 24 58 49 c65 55
119 102 143 124 8 8 79 69 155 134 77 66 150 129 161 140 12 12 44 40 70 62
27 23 83 70 124 106 41 35 88 75 104 89 16 13 36 31 45 40 9 8 63 55 121 105
58 49 107 91 110 94 3 3 70 62 150 130 80 69 147 127 150 130 3 3 36 32 75 65
38 33 75 65 81 70 6 6 37 33 69 60 74 63 151 130 190 164 17 15 100 87 185
160 85 73 171 148 190 165 19 17 116 101 215 186 161 138 223 192 259 225 6 6
56 48 111 95 55 47 107 92 115 100 20 18 127 112 195 170 77 66 88 74 290 250
105 90 192 167 195 170 3 3 50 43 105 90 55 47 102 87 105 90 5 6 291 253 485
420 137 118 168 145 225 195 25 23 62 55 83 73 l37 31 -32 30 c-36 32 -251
218 -343 296 -32 28 -63 55 -69 60 -6 6 -60 53 -121 105 -60 52 -112 97 -115
100 -3 3 -54 48 -115 100 -60 52 -115 99 -121 105 -6 5 -35 30 -64 55 -29 25
-58 50 -64 55 -10 10 -120 105 -421 365 -322 277 -481 415 -491 425 -6 5 -35
30 -64 55 -29 25 -58 50 -64 55 -6 6 -40 35 -76 65 -36 30 -69 60 -75 66 -8 9
-177 155 -254 219 -13 11 -29 25 -35 30 -6 6 -42 37 -81 70 -38 33 -77 67 -86
75 -33 30 -76 67 -184 160 -60 52 -112 97 -115 100 -3 3 -34 30 -70 60 -36 30
-67 57 -70 60 -27 28 -37 29 -61 7z"/>
<path d="M3609 12224 c-2 -90 0 -5456 3 -5457 12 -8 583 -492 598 -507 4 -4
116 -99 215 -181 11 -10 72 -61 135 -116 63 -54 129 -110 146 -123 24 -20 683
-580 959 -815 28 -24 88 -76 135 -116 47 -39 108 -91 135 -114 28 -24 77 -65
109 -93 l60 -49 130 111 c141 120 153 130 260 222 79 67 334 284 411 349 28
23 113 96 190 161 77 66 262 223 410 349 149 126 275 234 281 240 6 5 30 26
54 45 24 19 91 76 149 126 93 79 453 385 581 494 25 21 145 123 266 226 322
275 455 388 473 400 13 10 10 16 -19 40 -19 16 -129 109 -245 207 -115 99
-230 195 -254 215 -24 21 -49 42 -55 47 -19 17 -103 89 -526 448 -58 49 -118
101 -135 116 -16 14 -88 75 -160 135 -71 61 -191 162 -265 225 -74 63 -173
148 -220 187 -189 161 -458 390 -510 434 -30 26 -122 104 -205 174 -82 70
-188 160 -235 200 -47 40 -256 218 -465 395 -209 178 -391 333 -405 344 -14
12 -131 112 -260 221 -129 110 -237 202 -240 206 -3 3 -30 25 -60 50 -66 54
-101 84 -154 131 -23 19 -117 100 -211 179 -93 80 -181 154 -195 166 -101 86
-321 273 -400 339 -52 44 -97 82 -100 85 -3 3 -79 69 -170 145 -91 77 -167
142 -170 145 -3 3 -13 11 -22 19 -16 12 -18 11 -19 -5z"/>
<path d="M13630 11124 c-74 -64 -149 -128 -165 -143 -17 -14 -52 -44 -79 -65
-26 -21 -55 -46 -64 -56 -10 -9 -60 -52 -112 -95 -52 -44 -97 -82 -100 -85 -3
-3 -48 -41 -100 -84 -52 -44 -99 -84 -105 -90 -5 -6 -31 -28 -57 -49 -26 -21
-53 -43 -60 -50 -7 -7 -101 -86 -208 -177 -107 -90 -197 -167 -200 -170 -3 -3
-214 -183 -470 -400 -256 -217 -499 -424 -541 -460 -41 -36 -129 -110 -195
-165 -65 -55 -128 -109 -139 -120 -12 -11 -37 -32 -56 -46 -19 -15 -46 -37
-60 -51 -14 -13 -39 -34 -55 -47 -16 -12 -45 -37 -64 -54 -19 -18 -51 -45 -71
-62 -76 -63 -144 -121 -172 -146 -33 -29 -35 -25 47 -94 27 -22 58 -49 71 -60
12 -11 48 -43 81 -71 168 -144 495 -428 518 -449 6 -5 40 -35 76 -65 36 -30
67 -57 70 -60 3 -3 70 -62 150 -130 80 -69 161 -139 180 -156 19 -17 76 -66
125 -109 50 -43 115 -99 145 -125 30 -26 76 -65 102 -86 26 -22 46 -44 45 -51
-2 -10 -76 -77 -322 -288 -27 -24 -90 -78 -140 -121 -49 -44 -101 -89 -115
-101 -214 -184 -278 -238 -292 -252 -9 -9 -25 -23 -35 -31 -101 -85 -256 -219
-289 -248 -52 -48 -94 -85 -174 -152 -36 -30 -67 -57 -70 -60 -3 -3 -34 -30
-70 -60 -36 -30 -69 -60 -75 -66 -5 -6 -59 -53 -120 -104 -60 -52 -117 -101
-126 -109 -9 -9 -27 -25 -40 -35 -13 -11 -94 -80 -179 -154 -85 -74 -231 -200
-325 -281 -93 -80 -179 -154 -190 -164 -11 -11 -81 -71 -155 -135 -74 -64
-142 -123 -151 -131 -9 -9 -38 -34 -64 -56 -26 -22 -53 -45 -59 -50 -6 -6 -58
-51 -116 -100 -58 -50 -109 -95 -115 -101 -5 -6 -41 -37 -80 -70 -38 -32 -72
-61 -75 -64 -3 -3 -34 -30 -70 -60 -36 -30 -67 -57 -70 -60 -3 -3 -72 -64
-155 -135 -82 -71 -204 -177 -270 -234 -66 -58 -131 -115 -144 -126 -31 -25
-116 -99 -156 -134 -40 -34 -176 -152 -244 -210 -30 -25 -61 -53 -70 -61 -9
-9 -45 -40 -81 -70 -101 -85 -96 -77 -63 -108 15 -15 91 -81 168 -147 121
-103 156 -134 219 -190 6 -5 43 -37 81 -70 107 -92 127 -109 139 -120 6 -6 74
-64 151 -130 77 -66 145 -124 151 -130 6 -5 39 -35 74 -65 35 -30 68 -59 74
-65 6 -5 40 -34 76 -64 36 -30 70 -60 75 -66 6 -5 37 -33 70 -60 33 -28 67
-57 75 -65 8 -9 31 -29 51 -45 43 -36 392 -337 399 -345 3 -3 37 -32 75 -65
39 -33 72 -62 75 -65 3 -3 37 -32 75 -65 39 -33 72 -62 75 -65 3 -3 52 -46
110 -95 58 -50 110 -94 116 -100 23 -20 134 -116 369 -320 132 -114 268 -232
303 -262 135 -120 131 -119 242 -20 20 18 67 59 105 92 39 33 72 62 75 65 3 3
50 43 105 90 55 47 107 92 115 100 9 8 30 26 46 40 16 14 76 66 134 116 58 50
118 101 134 115 16 13 41 35 56 49 15 14 38 34 51 45 51 43 324 279 329 284 5
6 185 161 234 202 16 13 38 33 50 44 12 11 99 87 194 168 95 82 178 154 185
160 7 7 42 37 77 67 36 30 70 59 76 65 6 5 35 30 64 55 29 25 58 50 64 56 6 5
133 115 281 243 149 129 297 257 330 286 33 29 134 117 225 195 91 78 194 167
230 198 35 32 82 73 104 92 23 19 46 40 52 45 6 6 33 28 59 50 27 22 53 45 59
51 6 5 45 39 86 74 84 72 123 106 190 165 25 22 77 67 115 100 39 33 75 64 81
70 13 12 96 83 215 186 227 195 608 525 639 553 19 17 105 91 190 164 85 74
169 146 185 161 17 14 113 98 215 186 102 88 190 164 196 170 6 5 37 33 70 60
32 28 110 95 174 150 63 56 183 159 265 230 83 71 152 132 155 135 3 3 39 34
80 70 132 114 311 311 379 415 14 22 29 42 32 45 8 7 100 166 121 210 95 199
141 391 142 605 1 169 -6 238 -40 374 -100 406 -358 806 -729 1130 -11 9 -54
46 -95 82 -97 83 -118 102 -220 190 -47 41 -114 99 -150 129 -36 30 -82 71
-104 90 -21 19 -44 40 -50 45 -6 6 -38 32 -71 60 -33 27 -67 56 -75 65 -8 9
-31 29 -51 45 -44 36 -392 337 -399 345 -3 3 -34 30 -70 60 -36 30 -67 57 -70
60 -3 3 -43 38 -90 79 -47 40 -112 97 -145 126 -76 66 -372 322 -445 384 -30
25 -62 53 -70 61 -8 8 -44 40 -80 70 -36 30 -70 60 -76 65 -6 6 -35 31 -65 57
-30 25 -65 56 -79 68 -14 12 -50 42 -80 68 -30 26 -73 63 -95 83 -22 20 -78
69 -125 109 -91 77 -129 110 -310 269 -63 55 -117 101 -120 100 -3 0 -66 -52
-140 -115z"/>
</g>
</svg>
